{"title":"MANNU SIDHU - JATT LUTTEYA GAYA - [2010] [PbTone]","uid":5992582,"size":33793684,"categoryP":"video","categoryS":"music_videos","magnet":"?xt=urn:btih:b766ab20760c8b9c7d9c6c12cc3303384ef2e07e&amp;dn=MANNU+SIDHU+-+JATT+LUTTEYA+GAYA+-+%5B2010%5D+%5BPbTone%5D&amp;tr=udp%3A%2F%2Ftracker.openbittorrent.com%3A80&amp;tr=udp%3A%2F%2Fopen.demonii.com%3A1337&amp;tr=udp%3A%2F%2Ftracker.coppersurfer.tk%3A6969&amp;tr=udp%3A%2F%2Fexodus.desync.com%3A6969","seeders":0,"leechers":1,"uploader":"PBTONE","files":-1,"time":1290941329,"description":"      :::::::::  :::::::::   ::::::::::: ::::::::  ::::    ::: :::::::::: \n     :+:    :+: :+:    :+:      :+:    :+:    :+: :+:+:   :+: :+:         \n    +:+    +:+ +:+    +:+      +:+    +:+    +:+ :+:+:+  +:+ +:+          \n   +#++:++#+  +#++:++#+       +#+    +#+    +:+ +#+ +:+ +#+ +#++:++#      \n  +#+        +#+    +#+      +#+    +#+    +#+ +#+  +#+#+# +#+            \n #+#        #+#    #+#      #+#    #+#    #+# #+#   #+#+# #+#             \n###        #########       ###     ########  ###    #### ########## \n\n\n\n\nGeneral\nFormat                           : AVI\nFormat/Info                      : Audio Video Interleave\nFile size                        : 32.0 MiB\nDuration                         : 3mn 49s\nOverall bit rate                 : 1 169 Kbps\nWriting application              : MEncoder Sherpya-SVN-r30075-4.2.5\nWriting library                  : MPlayer\n\nVideo\nID                               : 0\nFormat                           : MPEG-4 Visual\nFormat profile                   : Simple@L3\nFormat settings, BVOP            : No\nFormat settings, QPel            : No\nFormat settings, GMC             : No warppoints\nFormat settings, Matrix          : Default (H.263)\nCodec ID                         : XVID\nCodec ID/Hint                    : XviD\nDuration                         : 3mn 49s\nBit rate                         : 980 Kbps\nWidth                            : 720 pixels\nHeight                           : 576 pixels\nDisplay aspect ratio             : 5:4\nFrame rate                       : 29.970 fps\nStandard                         : PAL\nColor space                      : YUV\nChroma subsampling               : 4:2:0\nBit depth                        : 8 bits\nScan type                        : Progressive\nCompression mode                 : Lossy\nBits/(Pixel*Frame)               : 0.079\nStream size                      : 26.8 MiB (84%)\nWriting library                  : XviD 1.2.1 (UTC 2008-12-04)\n\nAudio\nID                               : 1\nFormat                           : MPEG Audio\nFormat version                   : Version 1\nFormat profile                   : Layer 3\nMode                             : Joint stereo\nMode extension                   : MS Stereo\nCodec ID                         : 55\nCodec ID/Hint                    : MP3\nDuration                         : 3mn 48s\nBit rate mode                    : Constant\nBit rate                         : 32.0 Kbps\nChannel(s)                       : 2 channels\nSampling rate                    : 44.1 KHz\nCompression mode                 : Lossy\nStream size                      : 4.80 MiB (15%)\nAlignment                        : Aligned on interleaves\nInterleave, duration             : 26 ms (0.79 video frame)\nInterleave, preload duration     : 94 ms\nWriting library                  : LAME3.98.2\n\n\n\nScreens:- &lt;a href=&quot; http://imagehacks.in/share-7F20_4CF2261E.html&quot; rel=&quot;nofollow&quot; target=&quot;_NEW&quot;&gt; http://imagehacks.in/share-7F20_4CF2261E.html&lt;/a&gt;\n\n\n\n","torrent":{"xt":"urn:btih:b766ab20760c8b9c7d9c6c12cc3303384ef2e07e","amp;dn":"MANNU+SIDHU+-+JATT+LUTTEYA+GAYA+-+%5B2010%5D+%5BPbTone%5D","amp;tr":["udp%3A%2F%2Ftracker.openbittorrent.com%3A80","udp%3A%2F%2Fopen.demonii.com%3A1337","udp%3A%2F%2Ftracker.coppersurfer.tk%3A6969","udp%3A%2F%2Fexodus.desync.com%3A6969"],"infoHash":"b766ab20760c8b9c7d9c6c12cc3303384ef2e07e","infoHashBuffer":{"type":"Buffer","data":[183,102,171,32,118,12,139,156,125,156,108,18,204,51,3,56,78,242,224,126]},"announce":[],"urlList":[]}}